<?xml version="1.0" encoding="utf-8"?>
<!-- Generator: Adobe Illustrator 19.0.0, SVG Export Plug-In . SVG Version: 6.00 Build 0)  -->
<svg version="1.1" id="Layer_1" xmlns="http://www.w3.org/2000/svg" xmlns:xlink="http://www.w3.org/1999/xlink" x="0px" y="0px"
	 viewBox="0 0 141.7 141.7" style="enable-background:new 0 0 141.7 141.7;" xml:space="preserve">
<style type="text/css">
	.st0{fill:#474047;}
	.st1{fill:#FFFFFF;}
	.st2{opacity:0.5;fill:#3B343B;}
</style>
<circle id="bg" class="st0" cx="70.5" cy="70.7" r="67.2"/>
<path id="gear" class="st1" d="M96.3,63l-1.8-4.2c0,0,4.1-9.3,3.8-9.7l-5.5-5.3c-0.4-0.4-9.7,3.9-9.7,3.9l-4.3-1.7
	c0,0-3.8-9.4-4.3-9.4h-7.7c-0.5,0-4,9.4-4,9.4l-4.3,1.7c0,0-9.5-4-9.9-3.7l-5.4,5.3c-0.4,0.4,4,9.5,4,9.5L45.4,63
	c0,0-9.6,3.7-9.6,4.2v7.5c0,0.5,9.7,4,9.7,4l1.8,4.2c0,0-4.1,9.3-3.8,9.7l5.5,5.3c0.4,0.4,9.7-3.9,9.7-3.9l4.3,1.7
	c0,0,3.8,9.4,4.3,9.4h7.7c0.5,0,4-9.4,4-9.4l4.3-1.7c0,0,9.5,4,9.8,3.7l5.5-5.3c0.4-0.4-4-9.5-4-9.5l1.8-4.2c0,0,9.6-3.7,9.6-4.2
	v-7.5C106,66.4,96.3,63,96.3,63z M82.1,70.9c0,6.1-5,11-11.2,11c-6.2,0-11.2-4.9-11.2-11c0-6.1,5.1-11,11.2-11
	C77.1,59.9,82.1,64.8,82.1,70.9z"/>
<g id="XMLID_1_">
</g>
<g id="XMLID_2_">
</g>
<g id="XMLID_5_">
</g>
<g id="XMLID_6_">
</g>
<g id="XMLID_7_">
</g>
</svg>
