<?xml version="1.0" encoding="utf-8"?>
<!-- Generator: Adobe Illustrator 19.0.0, SVG Export Plug-In . SVG Version: 6.00 Build 0)  -->
<svg version="1.1" id="Layer_1" xmlns="http://www.w3.org/2000/svg" xmlns:xlink="http://www.w3.org/1999/xlink" x="0px" y="0px"
	 viewBox="0 0 141.7 141.7" style="enable-background:new 0 0 141.7 141.7;" xml:space="preserve">
<style type="text/css">
	.st0{fill:#474047;}
	.st1{opacity:0.5;}
	.st2{fill:none;}
	.st3{fill:#3B343B;}
	.st4{opacity:0.41;fill:none;stroke:#3B343B;stroke-width:0;stroke-linecap:round;stroke-linejoin:round;}
	.st5{fill:#FFFFFF;}
</style>
<circle id="bg" class="st0" cx="70.5" cy="70.7" r="67.2"/>
<g id="motorcycle">
	<path id="XMLID_53_" class="st5" d="M58.3,68.9c-0.5-0.6-0.6-1.4-0.2-1.8c0.5-0.4,1.3-0.3,1.8,0.3l0.9,1c-0.7,0.5-1.3,0.9-1.9,1.3
		L58.3,68.9z"/>
	<path id="XMLID_52_" class="st5" d="M55.5,70.2c-0.6-0.6-0.6-1.4-0.2-1.8c0.5-0.4,1.3-0.3,1.8,0.3l1.2,1.3c-0.9,0.6-1.5,1-1.9,1.2
		L55.5,70.2z"/>
	<path id="XMLID_51_" class="st5" d="M52.8,71.6c-0.6-0.6-0.6-1.4-0.2-1.8c0.5-0.4,1.3-0.3,1.8,0.3l1.2,1.3
		C55,71.5,54,71.6,52.8,71.6L52.8,71.6z"/>
	<path id="XMLID_50_" class="st5" d="M67.8,63.7c-2,1.4-4.2,2.9-6.2,4.2l-1.3-1.3c0,0,2.7-1.8,5.1-3.5
		C66.2,63.2,66.9,63.4,67.8,63.7z"/>
	<path id="XMLID_49_" class="st5" d="M89.7,86.3c-0.5-1.1-1.5-3.7-1.3-5.7c0.3-0.3,1.2-1.3,4.3-3.7c-0.4,1-0.7,2.1-0.7,3.3
		c0,4.6,3.7,8.2,8.2,8.2c4.6,0,8.2-3.7,8.2-8.2c0-4.6-3.7-8.2-8.2-8.2c-0.4,0-0.7,0-1.1,0.1c1.6-1.3,3-2.5,4-3.7
		c5.3,1.3,9.2,6.1,9.2,11.8c0,6.7-5.5,12.2-12.2,12.2C95.7,92.5,91.8,90,89.7,86.3z"/>
	<path id="XMLID_48_" class="st5" d="M99.5,74.8c0.2,0,0.5-0.1,0.7-0.1c3,0,5.5,2.5,5.5,5.5c0,3-2.5,5.5-5.5,5.5
		c-3,0-5.5-2.5-5.5-5.5c0-0.7,0.1-1.4,0.4-2.1l2.9,3.8c0.5,0.7,1.3,1.1,2.2,1.1c0.6,0,1.2-0.2,1.7-0.6c1.2-0.9,1.4-2.7,0.5-3.9
		L99.5,74.8z"/>
	<path id="XMLID_47_" class="st5" d="M40.2,66.5c4.3,0,8.1,2.1,10.4,5.3c-2,0.1-4.3,0.3-6.5,0.4c-1.2-0.6-2.5-1-3.9-1
		c-4.5,0-8.1,3.6-8.1,8.1c0,4.5,3.6,8.1,8.1,8.1c2.5,0,4.7-1.1,6.2-2.9c1.9-0.6,4.1-1.2,6.1-1.6c-1.6,5.3-6.5,9.2-12.3,9.2
		c-7.1,0-12.9-5.8-12.9-12.9C27.3,72.3,33,66.5,40.2,66.5z"/>
	<path id="XMLID_46_" class="st5" d="M100.3,55.5c-1.8-1.4-4.2-2.8-7.6-4.1l-2.3-4l3.2,1.4C97.3,51,99.3,53.5,100.3,55.5z"/>
	<path id="XMLID_57_" class="st5" d="M54.9,63.8c0,0,1.1,0.6,2.4,0.6c0.7,0,1.4-0.2,2.1-0.6c1.3-0.9,2.5-2.1,5-2.1
		c0.8,0,1.6,0.1,2.6,0.4c1,0.3,2.3,0.7,3.7,1.3c0,0-4.3,2.9-8.1,5.5c-0.3,0.2-0.6,0.4-0.8,0.6c-0.7,0.4-1.3,0.9-1.9,1.2
		c-0.2,0.1-0.4,0.3-0.6,0.4c-0.8,0.5-1.4,0.9-1.9,1.2c-0.3,0.2-0.5,0.3-0.6,0.4c0,0,0,0,0,0c-0.2,0.1-1.2,0.2-2.7,0.3
		c-0.8,0.1-1.6,0.1-2.6,0.2c-1.8,0.1-3.8,0.3-5.6,0.4c-0.7,0-1.4,0.1-2.1,0.1c-2.3,0.1-3.9,0.2-3.9,0.2l0,0
		c-2.9,0.2-5.1,2.6-5.1,5.5c0,3,2.5,5.5,5.5,5.5c0.6,0,1.1-0.1,1.6-0.3l0,0c0,0,1.6-0.5,3.8-1.2c0.6-0.2,1.3-0.4,2-0.6
		c1.7-0.5,3.6-1,5.3-1.3c1.2-0.2,2.3-0.4,3.1-0.4c0.9,0,1.5,0.1,1.8,0.5c1.4,2.1,3.1,4.1,3.1,4.1s1,1.4,3.4,1.4c2.5,0,24.4,0,24.4,0
		s-2.1-3.9-1.5-7.1c0,0,0-0.2,1-1.2c0.8-0.8,2.2-2,4.7-3.8c0.2-0.1,0.4-0.3,0.6-0.4c0,0,0.1,0,0.1-0.1l0.3,0.4l0.1,0.1l0.4,0.5
		l0.4,0.5l0.9,1.1l2.9,3.7c0.4,0.5,1,0.8,1.5,0.8c0.4,0,0.8-0.1,1.2-0.4c0.8-0.7,1-1.9,0.3-2.7L98.7,75l-0.9-1.2l-0.3-0.4L97,72.9
		l-0.1-0.2l-0.3-0.4c0,0,0.1,0,0.1-0.1c0.2-0.1,0.4-0.3,0.5-0.4c1.9-1.4,3.3-2.7,4.4-3.7c2.9-2.8,3.2-4.6,2.2-6.4
		c-0.6-1.1-1.3-2.3-2.6-3.6c-1.5-1.6-3.7-3.2-7.4-4.9c-1.2-0.5-2.6-1.1-4.1-1.6c0,0-3.8-1.1-5.9-1.1c-0.8,0-1.3,0.2-1.3,0.6
		c0,0-0.8,0-2,0c-3.2,0-9.8,0.3-14.2,2.6c0,0-0.5,0.1-1.5,1.1l3.4,1.5c0.3,0.1,0.4,0.4,0.4,0.7c0,0.3-0.2,0.5-0.5,0.6
		c-0.4,0.1-9,3-11.6,3c0,0-0.2,0-0.2,0c-2.2-0.1-6.7-4.6-8.5-6.4c-2-0.7-4.9-1.3-9.1-1.3c-0.8,0-1.7,0-2.6,0.1h0
		C36.1,52.9,32.4,52.9,54.9,63.8z M73.3,75.3L69,71.5c-0.6-0.5-0.6-1.4-0.1-1.9c0.5-0.6,1.4-0.6,1.9-0.1l4.8,4.3L73.3,75.3z
		 M79.8,71l-2.4,1.6l-4.3-3.8c-0.6-0.5-0.6-1.4-0.1-1.9c0.5-0.6,1.4-0.6,1.9-0.1L79.8,71z M64.8,72.3c0.5-0.6,1.4-0.6,1.9-0.1
		l4.8,4.3L69.1,78l-4.2-3.8C64.3,73.7,64.3,72.9,64.8,72.3z"/>
	<path id="XMLID_3_" class="st5" d="M56.5,59.2c-0.4,0-1.1-0.4-1.9-1c-0.7-0.5-1.4-1.1-2.2-1.7c0,0,0,0,0,0
		c-0.2-0.1-0.3-0.3-0.5-0.4c0.1,0,0.1,0,0.2,0c0.2,0,0.6,0,1.2,0c0,0,0,0,0,0c2.3,0,6.8-0.3,9-0.4c0.4,0,0.7,0,0.9-0.1
		c0.1,0,0.2,0,0.2,0l0.5,0.2l2.2,0.9c-1,0.3-2.3,0.7-3.5,1.1c-0.3,0.1-0.6,0.2-1,0.3c-1,0.3-2,0.5-2.8,0.7c-0.6,0.1-1.2,0.2-1.6,0.3
		c-0.2,0-0.4,0-0.5,0"/>
	<path id="XMLID_2_" class="st5" d="M56.6,59.9L56.6,59.9"/>
</g>
<g id="XMLID_1_">
</g>
<g id="XMLID_4_">
</g>
<g id="XMLID_5_">
</g>
<g id="XMLID_6_">
</g>
<g id="XMLID_7_">
</g>
</svg>
