<?xml version="1.0" encoding="utf-8"?>
<!-- Generator: Adobe Illustrator 19.0.0, SVG Export Plug-In . SVG Version: 6.00 Build 0)  -->
<svg version="1.1" id="Layer_1" xmlns="http://www.w3.org/2000/svg" xmlns:xlink="http://www.w3.org/1999/xlink" x="0px" y="0px"
	 viewBox="0 0 141.7 141.7" style="enable-background:new 0 0 141.7 141.7;" xml:space="preserve">
<style type="text/css">
	.st0{fill:#474047;}
	.st1{opacity:0.5;fill:#3B343B;}
	.st2{fill:#FFFFFF;}
</style>
<circle id="bg" class="st0" cx="70.5" cy="70.7" r="67.2"/>
<path id="guitar" class="st2" d="M92.8,52.1c1.3-1.2,3.1-1.5,4.4-0.8l0.3-0.3c0.8-1.9,2.2-4.1,4.2-6.1c2-2,4.1-3.4,6.1-4.2
	c0,0,0.4-0.4,0.9-0.9c0.5-0.5,0.2-1.5-0.6-2.3l-4.9-4.9c-0.8-0.8-1.9-1.1-2.3-0.7l-0.8,0.8c-0.8,1.9-2.2,4.1-4.2,6.1
	c-2,2-4.2,3.4-6.1,4.2l-0.2,0.2c0.8,1.3,0.6,3.2-0.7,4.6l-13,13c-0.6,0-1.5-0.5-2.7-2.4c-2.2-3.4-7.2-5.3-11.4,2
	c-4.2,7.2-0.7,8.4-12.6,9.8l0,0c-4.2,0.2-8.2,1.8-11.2,4.9c-7.2,7.2-6.4,19.7,1.8,27.9c8.2,8.2,20.7,9,27.9,1.8
	c0.1-0.1,0.3-0.3,0.4-0.4l0,0c0,0,0,0,0.1-0.1c0.6-0.6,1.1-1.3,1.6-2c1.9-2.6,4.5-7.3,3.9-12.3c-0.9-7.4,6.1-7.1,9-9
	c2.9-1.9,3.9-3.5,4-5.4c0,0-3.4,2.4-6.6-0.7c-2.5-2.5-1.4-6.8-0.3-9.1L92.8,52.1z"/>
<g id="XMLID_1_">
</g>
<g id="XMLID_2_">
</g>
<g id="XMLID_3_">
</g>
<g id="XMLID_4_">
</g>
<g id="XMLID_5_">
</g>
</svg>
